<svg width="17" height="17" fill="none" xmlns="http://www.w3.org/2000/svg"><path d="M7.456 14.582C3.356 14.582 0 11.284 0 7.254 0 3.297 3.355 0 7.456 0c4.101 0 7.456 3.297 7.456 7.328-.074 4.03-3.355 7.254-7.456 7.254zm0-13.116c-3.28 0-5.965 2.637-5.965 5.862 0 3.224 2.684 5.862 5.965 5.862 3.28 0 5.965-2.638 5.965-5.862-.074-3.225-2.684-5.862-5.965-5.862z" fill="#000"/><path d="M3.28 7.328h-.745c0-2.638 2.237-4.837 4.921-4.837v.733c-2.311 0-4.175 1.832-4.175 4.104zM16.254 17a.683.683 0 01-.522-.22l-4.175-4.103a.7.7 0 010-1.026.73.73 0 011.044 0l4.175 4.103a.7.7 0 010 1.026c-.074.147-.298.22-.522.22z" fill="#000"/></svg>